<?xml version="1.0" encoding="UTF-8" standalone="no"?>
<!-- Created with Inkscape (http://www.inkscape.org/) -->

<svg
   width="340"
   height="340.21588"
   viewBox="0 0 89.95833 90.015452"
   version="1.1"
   id="svg1"
   inkscape:version="1.3.2 (091e20e, 2023-11-25, custom)"
   sodipodi:docname="favicon.svg"
   xmlns:inkscape="http://www.inkscape.org/namespaces/inkscape"
   xmlns:sodipodi="http://sodipodi.sourceforge.net/DTD/sodipodi-0.dtd"
   xmlns="http://www.w3.org/2000/svg"
   xmlns:svg="http://www.w3.org/2000/svg">
  <sodipodi:namedview
     id="namedview1"
     pagecolor="#505050"
     bordercolor="#ffffff"
     borderopacity="1"
     inkscape:showpageshadow="0"
     inkscape:pageopacity="0"
     inkscape:pagecheckerboard="1"
     inkscape:deskcolor="#d1d1d1"
     inkscape:document-units="px"
     inkscape:zoom="2.134059"
     inkscape:cx="448.20691"
     inkscape:cy="193.52792"
     inkscape:window-width="3840"
     inkscape:window-height="2071"
     inkscape:window-x="-9"
     inkscape:window-y="-9"
     inkscape:window-maximized="1"
     inkscape:current-layer="layer1"
     inkscape:lockguides="true"
     showgrid="false" />
  <defs
     id="defs1" />
  <g
     inkscape:label="Layer 1"
     inkscape:groupmode="layer"
     id="layer1"
     transform="translate(-0.90755115,-1.6162965)">
    <path
       id="path26"
       style="stroke-width:21.6575;paint-order:stroke markers fill"
       d="m 90.865883,46.62402 c 0,24.857083 -20.137862,45.007727 -44.979166,45.007727 -24.841305,0 -44.97916585,-20.150644 -44.97916585,-45.007727 0,-24.857079 20.13786085,-45.0077246 44.97916585,-45.0077235 13.793758,1.1e-6 44.979166,0 44.979166,0 0,0 0,33.9531555 0,45.0077235 z"
       sodipodi:nodetypes="sssscs" />
    <path
       style="color:#000000;fill:#ffffff;stroke-width:0.955471;-inkscape-stroke:none;paint-order:stroke markers fill"
       d="M 85.574216,6.9113291 74.056313,7.2285752 V 46.647348 c -6.1e-5,15.578461 -12.591132,28.169596 -28.169596,28.169596 -15.578461,0 -28.169596,-12.591131 -28.169596,-28.169596 0,-15.578465 12.591135,-28.16773 28.169596,-28.16773 4.504746,0 8.667861,1.210369 12.439783,3.088486 l -2.230054,3.862938 C 52.899944,23.891596 49.451629,22.930375 45.888583,22.926664 h -0.0019 c -13.079975,1.8e-4 -23.720748,10.640709 -23.720685,23.720684 -6.3e-5,13.079975 10.64071,23.72237 23.720685,23.722551 4.163902,1.7e-5 8.255224,-1.096118 11.861275,-3.17806 l -1.769114,-3.06236 c -3.068777,1.771748 -6.54864,2.705938 -10.092161,2.705924 C 34.717282,66.835249 25.70044,57.81675 25.700494,46.647348 25.70044,35.47858 34.716293,26.462336 45.884817,26.461159 c 3.542707,0.0037 7.021997,0.941086 10.088428,2.715254 l 1.530247,0.884557 5.762684,-9.982058 -1.528381,-0.884556 c -4.662464,-2.697772 -10.080377,-4.2511 -15.851067,-4.2511 -17.489055,0 -31.704092,14.215034 -31.704092,31.704092 0,17.489058 14.215037,31.705958 31.704092,31.705958 17.489057,0 31.704024,-14.216911 31.704091,-31.705958 V 10.667897 l 4.448901,-0.123166 v 36.102617 c 9.9e-5,19.987426 -16.165533,36.153003 -36.153003,36.153003 -19.987469,0 -36.1530018,-16.165532 -36.1530034,-36.153003 1.6e-6,-19.98747 16.1655344,-36.151137 36.1530034,-36.151137 6.591797,0 12.752052,1.768269 18.071836,4.846402 l 1.77098,-3.060492 C 59.892521,8.9047087 53.111832,6.9598491 45.886717,6.9598491 c -21.898053,0 -39.6874975,17.7894449 -39.6874992,39.6874989 1.7e-6,21.898054 17.7894462,39.689366 39.6874992,39.689366 21.898054,0 39.687608,-17.791299 39.687499,-39.689366 z"
       id="path7" />
  </g>
</svg>
