<?xml version="1.0" encoding="UTF-8" standalone="no"?>
<!-- Created with Inkscape (http://www.inkscape.org/) -->

<svg
   width="1710.6702"
   height="314.1806"
   viewBox="0 0 452.6148 83.126951"
   version="1.1"
   id="svg1"
   xmlns="http://www.w3.org/2000/svg"
   xmlns:svg="http://www.w3.org/2000/svg">
  <defs
     id="defs1" />
  <g
     id="layer1"
     transform="translate(-4.3496094,-5.0605469)">
    <g
       id="g26">
      <g
         id="g25">
        <path
           style="font-size:54.5944px;line-height:45.5668px;font-family:Chivo;-inkscape-font-specification:'Chivo, Normal';text-align:center;text-anchor:middle;stroke-width:20.0002;paint-order:stroke markers fill"
           d="m 428.24778,65.375221 v -2.019992 l 19.92695,-30.845836 h -18.61669 v -4.585929 h 26.96964 v 1.965398 l -19.87236,30.90043 h 20.30911 v 4.585929 z"
           id="path25" />
        <path
           style="font-size:54.5944px;line-height:45.5668px;font-family:Chivo;-inkscape-font-specification:'Chivo, Normal';text-align:center;text-anchor:middle;stroke-width:20.0002;paint-order:stroke markers fill"
           d="M 398.76683,65.375221 V 27.923464 h 24.78585 l -0.70972,4.585929 h -18.28913 v 11.464824 h 16.54211 v 4.58593 h -16.54211 v 12.229145 h 18.61669 l 0.76433,4.585929 z"
           id="path24" />
        <path
           id="path22"
           style="font-size:54.5944px;line-height:45.5668px;font-family:Chivo;-inkscape-font-specification:'Chivo, Normal';text-align:center;text-anchor:middle;stroke-width:20.0002;paint-order:stroke markers fill"
           d="m 388.44851,65.648193 q -1.36486,0 -2.62053,-0.545944 -1.20108,-0.545944 -2.01999,-2.074587 -0.76432,-1.528643 -0.76432,-4.422146 0,-2.72972 -0.60054,-4.476741 -0.54595,-1.747021 -1.52865,-2.72972 -0.9827,-1.037293 -2.07458,-1.474049 -1.09189,-0.436755 -2.12918,-0.436755 h -8.95349 v 15.88697 h -5.787 V 27.923464 h 17.5248 q 2.67513,0 4.9135,1.146482 2.23837,1.146483 3.65782,3.22107 1.41945,2.074587 1.41945,4.913496 0,2.23837 -0.9281,4.149174 -0.87351,1.910804 -2.40215,3.330258 -1.47405,1.419455 -3.27567,2.129182 v 0.272972 q 0.54595,0.163783 1.47405,0.709727 0.9827,0.49135 1.9654,1.528643 1.03729,1.037294 1.74702,2.838909 0.70973,1.801615 0.70973,4.47674 0,1.965399 0.16378,3.275664 0.21838,1.255672 0.54594,2.019993 0.32757,0.709727 0.87351,1.146483 0.54595,0.38216 1.20108,0.655132 v 1.419455 q -0.49135,0.218377 -1.36486,0.327566 -0.81891,0.163783 -1.74702,0.163783 z M 367.75723,44.902322 h 10.15456 q 1.63783,0 2.89351,-0.982699 1.31026,-1.037294 2.07458,-2.620531 0.81892,-1.637832 0.81892,-3.439448 0,-2.565936 -1.63783,-3.930796 -1.58324,-1.419455 -4.09458,-1.419455 h -10.20916 z" />
        <path
           style="font-size:54.5944px;line-height:45.5668px;font-family:Chivo;-inkscape-font-specification:'Chivo, Normal';text-align:center;text-anchor:middle;stroke-width:20.0002;paint-order:stroke markers fill"
           d="M 329.48659,65.375221 V 27.923464 h 24.78585 l -0.70973,4.585929 h -18.28912 v 11.464824 h 16.5421 v 4.58593 h -16.5421 v 12.229145 h 18.61669 l 0.76432,4.585929 z"
           id="path21" />
        <path
           style="font-size:54.5944px;line-height:45.5668px;font-family:Chivo;-inkscape-font-specification:'Chivo, Normal';text-align:center;text-anchor:middle;stroke-width:20.0002;paint-order:stroke markers fill"
           d="m 308.03102,65.921165 q -3.11188,0 -5.56863,-1.146482 -2.40216,-1.146482 -3.82161,-3.384853 -1.36486,-2.23837 -1.36486,-5.45944 v -1.910804 h 5.35025 v 1.583238 q 0,3.002692 1.58324,4.367552 1.63783,1.36486 4.09458,1.36486 1.63783,0 2.9481,-0.600539 1.31026,-0.600538 2.07458,-1.910804 0.76433,-1.310265 0.76433,-3.439447 V 27.923464 h 5.8416 v 27.351794 q 0,3.384852 -1.52865,5.787006 -1.47405,2.402153 -3.98539,3.657824 -2.51134,1.201077 -5.67782,1.201077 z"
           id="path20" />
        <path
           id="path18"
           style="font-size:54.5944px;line-height:45.5668px;font-family:Chivo;-inkscape-font-specification:'Chivo, Normal';text-align:center;text-anchor:middle;stroke-width:20.0002;paint-order:stroke markers fill"
           d="m 277.73118,65.648193 q -1.36486,0 -2.62053,-0.545944 -1.20108,-0.545944 -2.01999,-2.074587 -0.76433,-1.528643 -0.76433,-4.422146 0,-2.72972 -0.60053,-4.476741 -0.54595,-1.747021 -1.52865,-2.72972 -0.9827,-1.037293 -2.07458,-1.474049 -1.09189,-0.436755 -2.12919,-0.436755 h -8.95348 v 15.88697 h -5.787 V 27.923464 h 17.5248 q 2.67512,0 4.91349,1.146482 2.23837,1.146483 3.65783,3.22107 1.41945,2.074587 1.41945,4.913496 0,2.23837 -0.9281,4.149174 -0.87351,1.910804 -2.40215,3.330258 -1.47405,1.419455 -3.27567,2.129182 v 0.272972 q 0.54595,0.163783 1.47405,0.709727 0.9827,0.49135 1.9654,1.528643 1.03729,1.037294 1.74702,2.838909 0.70973,1.801615 0.70973,4.47674 0,1.965399 0.16378,3.275664 0.21838,1.255672 0.54594,2.019993 0.32757,0.709727 0.87351,1.146483 0.54595,0.38216 1.20108,0.655132 v 1.419455 q -0.49135,0.218377 -1.36486,0.327566 -0.81892,0.163783 -1.74702,0.163783 z M 257.0399,44.902322 h 10.15456 q 1.63783,0 2.8935,-0.982699 1.31027,-1.037294 2.07459,-2.620531 0.81892,-1.637832 0.81892,-3.439448 0,-2.565936 -1.63783,-3.930796 -1.58324,-1.419455 -4.09458,-1.419455 H 257.0399 Z" />
        <path
           id="path16"
           style="font-size:54.5944px;line-height:45.5668px;font-family:Chivo;-inkscape-font-specification:'Chivo, Normal';text-align:center;text-anchor:middle;stroke-width:20.0002;paint-order:stroke markers fill"
           d="m 210.47086,65.375221 14.52211,-37.451757 h 6.55132 l 14.46752,37.451757 h -6.11457 l -3.27567,-8.407537 h -17.14264 l -3.33026,8.407537 z m 10.59131,-12.829683 h 13.92157 l -6.8243,-18.070746 h -0.21838 z" />
        <path
           style="font-size:54.5944px;line-height:45.5668px;font-family:Chivo;-inkscape-font-specification:'Chivo, Normal';text-align:center;text-anchor:middle;stroke-width:20.0002;paint-order:stroke markers fill"
           d="m 192.50924,65.921165 q -3.8762,0 -7.09727,-1.091888 -3.16648,-1.091888 -5.07728,-3.548636 -1.91081,-2.456748 -1.91081,-6.551327 0,-0.218378 0,-0.49135 0,-0.327566 0.0546,-0.600538 h 5.40484 q -0.0546,0.327566 -0.0546,0.600538 0,0.272972 0,0.600538 0,2.238371 1.09189,3.657825 1.09189,1.419454 3.05728,2.129182 1.9654,0.709727 4.53134,0.709727 2.72972,0 4.69512,-0.600539 1.9654,-0.600538 3.00269,-1.965398 1.09189,-1.419454 1.09189,-3.657825 0,-2.019992 -1.20108,-3.221069 -1.20108,-1.255671 -3.16647,-1.965399 -1.9654,-0.709727 -4.31296,-1.255671 -2.34756,-0.600538 -4.69512,-1.310265 -2.29296,-0.709727 -4.25836,-1.85621 -1.9654,-1.146482 -3.16648,-3.057286 -1.20108,-1.910804 -1.20108,-4.858902 0,-3.494041 1.85621,-5.732411 1.91081,-2.238371 4.96809,-3.330259 3.11189,-1.146482 6.76971,-1.146482 3.65782,0 6.66052,1.091888 3.05728,1.037293 4.8589,3.330258 1.80161,2.238371 1.80161,5.95079 v 0.709727 h -5.29565 v -0.873511 q 0,-1.856209 -1.0373,-3.11188 -1.03729,-1.255671 -2.78431,-1.85621 -1.74702,-0.655133 -4.09458,-0.655133 -2.29297,0 -4.09458,0.545944 -1.74702,0.49135 -2.78432,1.637832 -1.03729,1.091888 -1.03729,2.948098 0,1.910804 1.20108,3.057286 1.20107,1.146483 3.16647,1.85621 1.9654,0.655132 4.31296,1.201076 2.40215,0.545944 4.74971,1.255672 2.34756,0.709727 4.31296,1.910804 1.9654,1.146482 3.16648,3.057286 1.20107,1.910804 1.20107,4.913496 0,4.203768 -1.9654,6.769705 -1.96539,2.511343 -5.29565,3.657825 -3.33026,1.146482 -7.42484,1.146482 z"
           id="path15" />
        <path
           style="font-size:54.5944px;line-height:45.5668px;font-family:Chivo;-inkscape-font-specification:'Chivo, Normal';text-align:center;text-anchor:middle;stroke-width:20.0002;paint-order:stroke markers fill"
           d="m 158.76989,24.15645 5.45944,-7.370243 h 5.40485 v 0.163783 l -6.38755,7.20646 z"
           id="path14" />
        <path
           style="font-size:54.5944px;line-height:45.5668px;font-family:Chivo;-inkscape-font-specification:'Chivo, Normal';text-align:center;text-anchor:middle;stroke-width:20.0002;paint-order:stroke markers fill"
           d="M 148.28777,65.375221 V 27.923464 h 24.78585 l -0.70972,4.585929 h -18.28913 v 11.464824 h 16.54211 v 4.58593 h -16.54211 v 12.229145 h 18.61669 l 0.76432,4.585929 z"
           id="path13" />
        <path
           style="font-size:54.5944px;line-height:45.5668px;font-family:Chivo;-inkscape-font-specification:'Chivo, Normal';text-align:center;text-anchor:middle;stroke-width:20.0002;paint-order:stroke markers fill"
           d="m 125.24893,65.921165 q -3.16648,0 -5.8962,-0.87351 -2.72972,-0.928105 -4.80431,-3.002692 -2.01999,-2.074587 -3.22106,-5.45944 -1.14649,-3.439447 -1.14649,-8.516726 v -2.893503 q 0,-4.96809 1.20108,-8.352943 1.20108,-3.439447 3.27566,-5.514034 2.07459,-2.074588 4.74972,-3.002692 2.72972,-0.928105 5.8416,-0.928105 h 0.70972 q 2.83891,0 5.40485,0.764321 2.62053,0.764322 4.58593,2.511343 1.9654,1.747021 3.11188,4.585929 1.20108,2.838909 1.20108,6.988083 h -5.51404 q 0,-4.09458 -1.25567,-6.278356 -1.20108,-2.23837 -3.27566,-3.11188 -2.07459,-0.873511 -4.69512,-0.873511 -2.01999,0 -3.71242,0.600539 -1.69243,0.545944 -2.9481,1.910804 -1.25567,1.36486 -1.9654,3.712419 -0.65513,2.292965 -0.65513,5.787006 v 5.350251 q 0,4.640524 1.14648,7.261055 1.20108,2.620531 3.27567,3.712419 2.07458,1.037294 4.8043,1.037294 2.72972,0 4.85891,-0.873511 2.12918,-0.87351 3.33025,-3.057286 1.25568,-2.23837 1.25568,-6.278356 h 5.35025 q 0,3.930797 -1.14649,6.769706 -1.14648,2.838908 -3.16647,4.585929 -1.9654,1.747021 -4.58593,2.620531 -2.56594,0.818916 -5.45944,0.818916 z"
           id="text1" />
      </g>
      <path
         style="color:#000000;fill:#000000;-inkscape-stroke:none;paint-order:stroke markers fill"
         d="M 87.423828,5.0605469 75.369141,5.3925781 V 46.648437 c -6.4e-5,16.304485 -13.177934,29.482422 -29.482422,29.482422 -16.304485,0 -29.482422,-13.177932 -29.482422,-29.482422 0,-16.304489 13.177937,-29.480468 29.482422,-29.480468 4.714687,0 9.071821,1.266777 13.019531,3.232422 l -2.333984,4.042968 C 53.226793,22.832168 49.617772,21.82615 45.888672,21.822266 h -0.002 C 32.197113,21.822455 21.060434,32.958879 21.0605,46.648437 c -6.6e-5,13.689559 11.136613,24.827936 24.826172,24.828125 4.357958,1.8e-5 8.639953,-1.147202 12.414062,-3.326171 l -1.851562,-3.205079 c -3.211796,1.854319 -6.853835,2.832046 -10.5625,2.832032 -11.689944,-1.62e-4 -21.12701,-9.438962 -21.126953,-21.128907 -5.7e-5,-11.689281 9.435974,-21.125721 21.125,-21.126953 3.707813,0.0039 7.349253,0.984945 10.558593,2.841797 l 1.601563,0.925781 6.03125,-10.447265 -1.59961,-0.925781 C 57.59676,15.092517 51.926348,13.466797 45.886719,13.466797 c -18.304121,0 -33.181641,14.877516 -33.181641,33.18164 0,18.304125 14.87752,33.183594 33.181641,33.183594 18.304123,0 33.18157,-14.879481 33.18164,-33.183594 V 8.9921875 l 4.65625,-0.1289062 V 46.648437 C 83.724713,67.567364 66.805692,84.486328 45.886719,84.486328 24.967747,84.486328 8.0488297,67.567411 8.0488281,46.648437 8.0488297,25.729464 24.967747,8.8125 45.886719,8.8125 c 6.899004,0 13.346353,1.850678 18.914062,5.072266 l 1.853516,-3.203125 C 60.545254,7.1468267 53.448556,5.1113281 45.886719,5.1113281 22.968122,5.1113281 4.3496112,23.729839 4.3496094,46.648437 4.3496112,69.567036 22.968122,88.1875 45.886719,88.1875 c 22.918599,0 41.537223,-18.620451 41.537109,-41.539063 z"
         id="path7" />
    </g>
  </g>
</svg>
